<?xml version="1.0" standalone="no"?>
<!DOCTYPE svg PUBLIC "-//W3C//DTD SVG 20010904//EN" "http://www.w3.org/TR/2001/REC-SVG-20010904/DTD/svg10.dtd">
<svg version="1.0" xmlns="http://www.w3.org/2000/svg" width="512.000000pt" height="512.000000pt"
    viewBox="0 0 512.000000 512.000000" preserveAspectRatio="xMidYMid meet">

    <g transform="translate(0.000000,512.000000) scale(0.100000,-0.100000)" fill="#000000" stroke="none">
        <path d="M2715 5106 c-74 -19 -117 -39 -160 -77 -77 -68 -93 -159 -60 -333 12
-66 14 -95 6 -112 -19 -42 -90 -83 -206 -119 -196 -61 -293 -125 -360 -240
-45 -77 -64 -92 -127 -101 -52 -7 -168 11 -195 31 -16 12 -16 17 -4 62 23 77
25 127 6 162 -21 41 -70 71 -118 71 -48 0 -273 -56 -300 -75 -60 -42 -75 -127
-32 -186 55 -77 75 -118 89 -185 16 -74 41 -146 77 -215 41 -82 8 -95 -146
-59 -98 23 -148 25 -195 8 -32 -11 -35 -10 -59 23 -54 73 -126 137 -166 148
-83 23 -157 7 -214 -44 -42 -38 -46 -38 -181 10 -61 22 -86 26 -136 22 -77 -6
-135 -37 -163 -87 -27 -49 -26 -83 5 -150 22 -48 25 -63 19 -117 -12 -118 30
-203 137 -277 88 -60 181 -86 338 -95 193 -11 256 -41 304 -147 15 -31 48 -75
81 -107 l56 -54 15 -107 c17 -134 28 -175 66 -251 33 -65 135 -171 174 -181
41 -10 74 4 89 38 16 40 6 70 -37 106 -95 80 -119 131 -143 308 -21 149 -35
182 -96 234 -30 25 -61 64 -79 99 -69 138 -215 211 -419 211 -92 0 -178 21
-246 59 -80 45 -90 65 -90 184 0 87 -3 108 -22 139 -12 20 -19 39 -16 42 14
14 88 4 144 -19 128 -54 213 -51 281 10 62 57 90 48 167 -50 52 -66 110 -105
155 -105 14 0 45 5 69 12 37 10 58 8 138 -10 188 -44 259 -26 312 78 36 70 32
111 -22 229 -22 47 -44 113 -50 145 -11 62 -47 148 -80 195 l-20 27 86 21 85
21 -6 -27 c-4 -14 -9 -51 -12 -81 -12 -116 64 -186 226 -211 184 -28 308 25
381 162 46 85 127 138 282 183 116 33 199 79 252 139 66 72 77 126 50 247 -8
36 -14 91 -15 123 0 48 4 62 24 82 21 21 109 55 142 55 7 0 24 -20 37 -43 55
-93 138 -145 281 -176 58 -13 96 -27 112 -42 13 -12 40 -63 59 -113 45 -111
91 -178 153 -217 60 -38 101 -49 184 -49 67 0 67 0 84 -35 26 -55 98 -112 169
-134 34 -11 106 -24 161 -31 211 -24 251 -38 331 -124 29 -30 67 -63 85 -72
82 -42 208 -71 391 -89 37 -4 67 -8 67 -9 0 -1 -16 -39 -35 -84 -39 -88 -39
-121 -2 -147 31 -22 70 -18 94 8 11 12 39 64 63 115 34 76 41 101 37 133 -12
92 -60 124 -200 134 -128 8 -249 31 -307 56 -25 11 -70 46 -102 80 -89 93
-153 116 -427 153 -134 18 -166 34 -203 101 -41 76 -65 88 -183 95 -146 8
-146 8 -244 225 -54 119 -112 163 -249 191 -124 26 -168 57 -216 151 -32 64
-114 86 -221 59z" />
        <path d="M4808 3370 c-20 -15 -26 -31 -30 -78 -10 -103 -42 -136 -149 -156
-85 -15 -164 -127 -189 -265 -12 -69 -26 -92 -142 -246 -134 -176 -170 -294
-115 -376 69 -102 181 -107 308 -13 l49 36 12 -29 c8 -18 13 -82 13 -174 1
-154 2 -159 67 -250 9 -13 5 -24 -20 -55 -77 -97 -85 -219 -19 -302 6 -8 11
-65 11 -130 1 -100 4 -123 23 -157 41 -77 122 -133 216 -150 20 -4 37 -13 37
-20 0 -51 -254 -326 -344 -372 -27 -13 -79 -31 -116 -39 -111 -23 -196 2 -311
91 -123 96 -185 111 -300 71 -93 -32 -114 -32 -212 -1 -96 31 -184 33 -245 5
-24 -11 -80 -55 -125 -98 -45 -43 -104 -91 -132 -107 -107 -61 -125 -91 -125
-210 0 -97 -14 -141 -56 -174 -40 -31 -69 -25 -233 52 -164 77 -157 75 -242
87 -51 7 -94 23 -173 65 -97 50 -111 55 -171 55 -73 0 -142 -20 -255 -74 -133
-64 -204 -44 -337 96 -43 46 -118 123 -167 172 l-88 88 26 52 c48 96 67 167
76 288 9 126 16 145 75 191 52 41 68 79 61 146 -3 31 -8 95 -12 144 l-6 87 43
-25 c28 -16 60 -25 87 -25 36 0 49 6 85 39 41 39 42 41 42 105 0 62 -5 74 -90
243 -49 98 -96 186 -104 196 -21 26 -86 23 -105 -5 -32 -45 -19 -89 73 -258
29 -52 59 -111 67 -130 l15 -35 -49 48 c-57 56 -103 69 -149 42 -16 -10 -36
-27 -44 -39 -19 -29 -25 -270 -9 -348 l13 -59 -41 -35 c-66 -56 -91 -120 -101
-260 -10 -125 -19 -161 -70 -262 -56 -111 -43 -154 77 -272 48 -47 132 -133
187 -191 81 -85 113 -112 170 -140 64 -31 77 -34 160 -34 87 0 93 2 195 49
136 65 184 70 260 27 97 -56 138 -72 217 -86 97 -17 90 -14 256 -92 174 -83
232 -91 317 -46 96 50 150 158 150 299 l0 73 47 23 c26 13 85 59 132 104 47
45 96 86 108 92 33 18 77 14 169 -14 101 -32 180 -30 265 5 35 15 66 21 81 18
13 -4 57 -32 98 -63 136 -103 254 -140 392 -123 76 9 162 38 218 71 62 37 187
154 268 252 123 148 159 256 112 333 -23 38 -60 59 -132 74 -112 23 -134 59
-124 206 7 107 -1 141 -38 172 -31 26 -20 81 29 141 70 85 73 158 10 225 -41
42 -38 31 -36 165 3 168 -37 288 -110 329 -52 29 -105 24 -160 -16 -91 -66
-103 -73 -122 -73 -17 0 -19 5 -14 34 7 42 36 90 142 231 99 132 119 170 133
254 12 69 39 130 62 142 8 5 40 15 71 23 114 32 182 111 202 235 12 80 1 122
-39 140 -35 15 -48 14 -76 -9z" />
    </g>
</svg>